<svg xmlns="http://www.w3.org/2000/svg" width="110.837" height="121.753" viewBox="0 0 29.326 32.214"><path d="m127.24 265.111 3.178-3.21 10.028 9.932-3.178 3.209z" style="fill:#4bf2e2;stroke-width:.128763" transform="translate(-111.12 -242.828)"/><path d="M125.673 242.828a14.553 14.553 0 0 0-14.552 14.553 14.553 14.553 0 0 0 14.552 14.552 14.553 14.553 0 0 0 6.766-1.673l-3.517-3.484a9.922 9.922 0 0 1-.47.148 9.922 9.922 0 0 1-.893.21 9.922 9.922 0 0 1-.908.126 9.922 9.922 0 0 1-.915.043 9.922 9.922 0 0 1-.915-.043 9.922 9.922 0 0 1-.908-.126 9.922 9.922 0 0 1-.892-.21 9.922 9.922 0 0 1-.869-.291 9.922 9.922 0 0 1-.839-.37 9.922 9.922 0 0 1-.8-.447 9.922 9.922 0 0 1-.756-.517 9.922 9.922 0 0 1-.705-.586 9.922 9.922 0 0 1-.649-.648 9.922 9.922 0 0 1-.585-.705 9.922 9.922 0 0 1-.518-.756 9.922 9.922 0 0 1-.446-.8 9.922 9.922 0 0 1-.37-.839 9.922 9.922 0 0 1-.291-.869 9.922 9.922 0 0 1-.21-.892 9.922 9.922 0 0 1-.127-.908 9.922 9.922 0 0 1-.042-.915 9.922 9.922 0 0 1 .042-.916 9.922 9.922 0 0 1 .127-.907 9.922 9.922 0 0 1 .21-.892 9.922 9.922 0 0 1 .291-.87 9.922 9.922 0 0 1 .37-.838 9.922 9.922 0 0 1 .446-.8 9.922 9.922 0 0 1 .518-.756 9.922 9.922 0 0 1 .585-.706 9.922 9.922 0 0 1 .649-.648 9.922 9.922 0 0 1 .705-.585 9.922 9.922 0 0 1 .756-.518 9.922 9.922 0 0 1 .8-.446 9.922 9.922 0 0 1 .839-.37 9.922 9.922 0 0 1 .869-.291 9.922 9.922 0 0 1 .892-.21 9.922 9.922 0 0 1 .908-.127 9.922 9.922 0 0 1 .914-.042 9.922 9.922 0 0 1 .306.005 9.922 9.922 0 0 1 .305.014 9.922 9.922 0 0 1 .305.023 9.922 9.922 0 0 1 .304.034 9.922 9.922 0 0 1 .303.041 9.922 9.922 0 0 1 .3.052 9.922 9.922 0 0 1 .3.061 9.922 9.922 0 0 1 .298.07 9.922 9.922 0 0 1 .295.08 9.922 9.922 0 0 1 .292.087 9.922 9.922 0 0 1 .29.098 9.922 9.922 0 0 1 .286.106 9.922 9.922 0 0 1 .284.114 9.922 9.922 0 0 1 .28.124 9.922 9.922 0 0 1 .275.132 9.922 9.922 0 0 1 .271.14 9.922 9.922 0 0 1 .267.149 9.922 9.922 0 0 1 .263.156 9.922 9.922 0 0 1 .257.165 9.922 9.922 0 0 1 .252.173 9.922 9.922 0 0 1 .247.18 9.922 9.922 0 0 1 .24.188 9.922 9.922 0 0 1 .236.196 9.922 9.922 0 0 1 .229.202 9.922 9.922 0 0 1 .222.21 9.922 9.922 0 0 1 .216.215 9.922 9.922 0 0 1 .21.223 9.922 9.922 0 0 1 .202.229 9.922 9.922 0 0 1 .195.235 9.922 9.922 0 0 1 .188.241 9.922 9.922 0 0 1 .18.247 9.922 9.922 0 0 1 .174.252 9.922 9.922 0 0 1 .164.257 9.922 9.922 0 0 1 .157.262 9.922 9.922 0 0 1 .149.267 9.922 9.922 0 0 1 .14.272 9.922 9.922 0 0 1 .132.275 9.922 9.922 0 0 1 .124.28 9.922 9.922 0 0 1 .114.283 9.922 9.922 0 0 1 .106.287 9.922 9.922 0 0 1 .097.29 9.922 9.922 0 0 1 .089.292 9.922 9.922 0 0 1 .079.295 9.922 9.922 0 0 1 .07.298 9.922 9.922 0 0 1 .06.299 9.922 9.922 0 0 1 .052.301 9.922 9.922 0 0 1 .042.303 9.922 9.922 0 0 1 .033.304 9.922 9.922 0 0 1 .024.304 9.922 9.922 0 0 1 .014.306 9.922 9.922 0 0 1 .005.305 9.922 9.922 0 0 1-.042.916 9.922 9.922 0 0 1-.126.907 9.922 9.922 0 0 1-.21.893 9.922 9.922 0 0 1-.292.868 9.922 9.922 0 0 1-.37.839 9.922 9.922 0 0 1-.446.8 9.922 9.922 0 0 1-.518.757 9.922 9.922 0 0 1-.585.704 9.922 9.922 0 0 1-.227.238l3.258 3.226a14.553 14.553 0 0 0 4.126-10.148 14.553 14.553 0 0 0-14.552-14.552z" style="fill:#0583f2;fill-opacity:1;stroke-width:.132291" transform="translate(-111.12 -242.828)"/><path d="m136.1 267.528-3.258-3.226a9.922 9.922 0 0 1-.422.411 9.922 9.922 0 0 1-.705.586 9.922 9.922 0 0 1-.756.517 9.922 9.922 0 0 1-.8.446 9.922 9.922 0 0 1-.839.37 9.922 9.922 0 0 1-.398.144l3.517 3.484a14.553 14.553 0 0 0 3.66-2.732z" style="fill:navy;fill-opacity:1;stroke-width:.132291" transform="translate(-111.12 -242.828)"/></svg>